<?xml version="1.0" encoding="utf-8"?>
<!-- Generator: Adobe Illustrator 18.0.0, SVG Export Plug-In . SVG Version: 6.00 Build 0)  -->
<!DOCTYPE svg PUBLIC "-//W3C//DTD SVG 1.1//EN" "http://www.w3.org/Graphics/SVG/1.1/DTD/svg11.dtd">
<svg version="1.1" xmlns="http://www.w3.org/2000/svg" xmlns:xlink="http://www.w3.org/1999/xlink" x="0px" y="0px" width="800px"
	 height="600px" viewBox="0 0 800 600" enable-background="new 0 0 800 600" xml:space="preserve">
<g id="Background">
	<radialGradient id="SVGID_1_" cx="284.6187" cy="280.0739" r="859.0263" gradientUnits="userSpaceOnUse">
		<stop  offset="0" style="stop-color:#FFFFFF"/>
		<stop  offset="0.261" style="stop-color:#F8F8F8"/>
		<stop  offset="0.5776" style="stop-color:#EBECED"/>
		<stop  offset="0.9216" style="stop-color:#D7D8D9"/>
		<stop  offset="1" style="stop-color:#D1D3D4"/>
	</radialGradient>
	<rect fill="url(#SVGID_1_)" width="800" height="600"/>
</g>
<g id="Object">
	<g>
		<defs>
			<rect id="SVGID_290_" width="800" height="600"/>
		</defs>
		<clipPath id="SVGID_2_">
			<use xlink:href="#SVGID_290_"  overflow="visible"/>
		</clipPath>
		<g clip-path="url(#SVGID_2_)">
			<g>
				<g>
					<path fill="#E6E7E8" d="M417.2,225.2l-21.9,1c0,0,2.7,2.9-6.2,6.6c-9,3.7-144.3,59.2-144.3,59.2l2.7,3.3l2.7,3.4
						c0,0,135.7-56.4,144.7-60.1c8.9-3.7,11.9-0.9,11.9-0.9L417.2,225.2z"/>
					<path fill="#E6E7E8" d="M96.7,139.5l9.9,15.4c0,0,2.9-1.5,11.3,5.2c8.5,6.8,186.6,148,186.6,148l2.6-2.3l2.6-2.3
						c0,0-177.8-140-186.3-146.7c-8.4-6.6-5.9-8.4-5.9-8.4L96.7,139.5z"/>
					<path fill="#E6E7E8" d="M282.3,257.9c-0.7-3.6-4.4-6.9-8.8-8l-1.5-7.8l-4.2-0.4l1.4,7.8c-4.1,0.4-6.7,3-6.1,6.6
						c0.6,3.6,4.4,7,8.8,8.1l46,253.1l5.4,0.4l-47.1-253.1C280.4,264.3,283,261.6,282.3,257.9z M273.5,261.2c-2.9-0.3-5.6-2.4-6-4.7
						c-0.4-2.3,1.6-3.9,4.5-3.6c2.9,0.3,5.6,2.4,6,4.6C278.5,259.8,276.4,261.5,273.5,261.2z"/>
					<path fill="#E6E7E8" d="M275.3,270.5c-8.7-0.8-14.8,4.2-13.6,11.3c1.2,7.2,9.4,13.8,18.3,14.6c8.9,0.8,14.9-4.4,13.5-11.7
						C292.1,277.7,283.9,271.4,275.3,270.5z"/>
					<path fill="#E6E7E8" d="M275.7,273c-3.9-0.4-7.1,0.7-9,2.7c-2.7,2.7-2,7.2,1.1,9.3c2.5,1.7,5.6,2.9,8.7,3.2
						c5.4,0.5,9.4-1.8,10.7-5.4c0.8-2.2-0.2-4.6-2-6.1C282.5,274.8,279.2,273.4,275.7,273z"/>
				</g>
				<g>
					<g>
						<polygon fill="#E6E7E8" points="231.2,69.8 237.6,106.2 253.8,107.9 246.7,71.4 						"/>
						<polygon fill="#E6E7E8" points="316.2,555.3 333.4,653.8 360.2,655.7 341.1,557.2 						"/>
					</g>
					<g>
						<polygon fill="#E6E7E8" points="368.9,104.5 351.5,134.8 367.4,142 384.3,111.2 						"/>
						<polygon fill="#E6E7E8" points="146.9,491.7 104.3,565.8 127.3,581.2 168.8,505.4 						"/>
					</g>
					<g>
						<polygon fill="#E6E7E8" points="498.8,183.7 456.7,200.9 469.9,213.1 512.1,195.4 						"/>
						<polygon fill="#E6E7E8" points="36.5,372.1 -36.6,401.9 -26.9,421.4 47,390.4 						"/>
					</g>
					<g>
						<polygon fill="#E6E7E8" points="598.9,305.8 533,299.6 539.9,315.7 606.9,322 						"/>
						<polygon fill="#E6E7E8" points="11.8,250.5 -59.4,243.8 -61.9,259.6 10.5,266.4 						"/>
					</g>
					<g>
						<polygon fill="#E6E7E8" points="633,458.4 552.5,416.8 548.8,433.3 630.6,476.1 						"/>
						<polygon fill="#E6E7E8" points="56.8,160.8 3.8,133.4 -6.3,143.1 47.2,171.1 						"/>
					</g>
					<g>
						<polygon fill="#E6E7E8" points="556.1,599.6 487.8,518.8 471.2,529.2 539.3,611.6 						"/>
						<polygon fill="#E6E7E8" points="144.8,113.4 114.4,77.5 100.5,81.2 130.5,117.5 						"/>
					</g>
					<g>
						<g>
							<g>
								<polygon fill="#E6E7E8" points="269.7,97.7 264.7,96.8 263.5,74 268.4,74.8 								"/>
							</g>
							<g>
								<polygon fill="#E6E7E8" points="302.3,649.4 293.7,647.8 290.3,583.3 298.5,584.8 								"/>
							</g>
						</g>
						<g>
							<g>
								<polygon fill="#E6E7E8" points="294.3,103 289.3,101.7 291.1,79.5 296,80.6 								"/>
							</g>
							<g>
								<polygon fill="#E6E7E8" points="254.1,638.3 245.6,635.8 250.7,573.5 258.8,575.8 								"/>
							</g>
						</g>
						<g>
							<g>
								<polygon fill="#E6E7E8" points="318.9,109.8 313.9,108.3 318.8,86.8 323.7,88.2 								"/>
							</g>
							<g>
								<polygon fill="#E6E7E8" points="206.8,622 198.5,618.6 211.8,559.6 219.7,562.8 								"/>
							</g>
						</g>
						<g>
							<g>
								<polygon fill="#E6E7E8" points="343.4,118.3 338.4,116.5 346.3,95.8 351.2,97.6 								"/>
							</g>
							<g>
								<polygon fill="#E6E7E8" points="161.2,601 153.4,596.8 174.5,542.1 182,546 								"/>
							</g>
						</g>
						<g>
							<g>
								<polygon fill="#E6E7E8" points="391.4,140.2 386.6,137.6 400.7,119.3 405.5,121.8 								"/>
							</g>
							<g>
								<polygon fill="#E6E7E8" points="79.5,547.3 73,542 107.1,497.9 113.5,502.9 								"/>
							</g>
						</g>
						<g>
							<g>
								<polygon fill="#E6E7E8" points="414.7,153.4 410,150.6 427.3,133.8 432,136.5 								"/>
							</g>
							<g>
								<polygon fill="#E6E7E8" points="44.6,516.2 38.9,510.5 78.2,472.4 83.8,477.8 								"/>
							</g>
						</g>
						<g>
							<g>
								<polygon fill="#E6E7E8" points="437.3,168.3 432.7,165.1 453.3,149.9 457.9,153 								"/>
							</g>
							<g>
								<polygon fill="#E6E7E8" points="14.4,483.2 9.6,477.2 52.9,445.3 57.8,450.9 								"/>
							</g>
						</g>
						<g>
							<g>
								<polygon fill="#E6E7E8" points="459.1,184.7 454.7,181.2 478.5,167.9 482.9,171.3 								"/>
							</g>
							<g>
								<polygon fill="#E6E7E8" points="-10.8,449.1 -14.8,443 31.6,417.1 35.6,423 								"/>
							</g>
						</g>
						<g>
							<g>
								<polygon fill="#E6E7E8" points="499.3,221.9 495.4,217.8 525.8,209.1 529.8,213.1 								"/>
							</g>
							<g>
								<polygon fill="#E6E7E8" points="-46.2,380.2 -48.4,374.2 1,360 3.4,365.8 								"/>
							</g>
						</g>
						<g>
							<g>
								<polygon fill="#E6E7E8" points="517.4,242.7 513.8,238.3 547.5,232.3 551.1,236.6 								"/>
							</g>
						</g>
						<g>
							<g>
								<polygon fill="#E6E7E8" points="533.7,264.7 530.5,260.1 567.4,257.1 570.8,261.7 								"/>
							</g>
						</g>
						<g>
							<g>
								<polygon fill="#E6E7E8" points="548.2,288 545.4,283.1 585.4,283.5 588.3,288.3 								"/>
							</g>
						</g>
						<g>
							<g>
								<polygon fill="#E6E7E8" points="616,345.6 570,337.5 568.2,332.3 614,340.3 								"/>
							</g>
						</g>
						<g>
							<g>
								<polygon fill="#E6E7E8" points="625.4,375.9 576.8,363.4 575.7,358 623.9,370.5 								"/>
							</g>
						</g>
						<g>
							<g>
								<polygon fill="#E6E7E8" points="631.2,407 580.5,389.6 580,384.2 630.4,401.4 								"/>
							</g>
							<g>
								<polygon fill="#E6E7E8" points="5.3,192.6 -34.6,178.9 -32.2,175 7.6,188.6 								"/>
							</g>
						</g>
						<g>
							<g>
								<polygon fill="#E6E7E8" points="633.1,438.4 580.8,416 581,410.6 633.1,432.8 								"/>
							</g>
							<g>
								<polygon fill="#E6E7E8" points="17.1,174.1 -20.1,158.2 -17.3,154.7 19.8,170.6 								"/>
							</g>
						</g>
						<g>
							<g>
								<polygon fill="#E6E7E8" points="623.7,500.8 570.1,467.5 571.9,462.4 625.3,495.4 								"/>
							</g>
							<g>
								<polygon fill="#E6E7E8" points="46.8,142.9 15.3,123.4 18.9,120.8 50.2,140.1 								"/>
							</g>
						</g>
						<g>
							<g>
								<polygon fill="#E6E7E8" points="611.7,530.6 558.7,491.9 561.3,487 614.2,525.5 								"/>
							</g>
							<g>
								<polygon fill="#E6E7E8" points="64.1,130.1 35.7,109.4 39.5,107.1 67.9,127.8 								"/>
							</g>
						</g>
						<g>
							<g>
								<polygon fill="#E6E7E8" points="594.5,558.8 543,514.6 546.6,510.1 597.9,554 								"/>
							</g>
							<g>
								<polygon fill="#E6E7E8" points="82.9,119.3 57.6,97.5 61.6,95.6 87,117.2 								"/>
							</g>
						</g>
						<g>
							<g>
								<polygon fill="#E6E7E8" points="572,584.6 523.1,535.2 527.6,531.2 576.4,580.2 								"/>
							</g>
							<g>
								<polygon fill="#E6E7E8" points="103,110.2 80.6,87.6 84.9,86.1 107.2,108.6 								"/>
							</g>
						</g>
						<g>
							<g>
								<polygon fill="#E6E7E8" points="511.6,626.4 471.3,568 477.3,565.3 517.8,623.3 								"/>
							</g>
							<g>
								<polygon fill="#E6E7E8" points="146.1,97.6 129.8,74.1 134.3,73.3 150.7,96.8 								"/>
							</g>
						</g>
						<g>
							<g>
								<polygon fill="#E6E7E8" points="474.3,641.1 439.8,579.4 446.6,577.3 481.3,638.9 								"/>
							</g>
							<g>
								<polygon fill="#E6E7E8" points="168.8,94 155.6,70.3 160.2,69.8 173.6,93.5 								"/>
							</g>
						</g>
						<g>
							<g>
								<polygon fill="#E6E7E8" points="433,650.9 405.4,586.8 412.7,585.6 440.6,649.6 								"/>
							</g>
							<g>
								<polygon fill="#E6E7E8" points="192.2,92.2 182,68.4 186.7,68.3 197,92 								"/>
							</g>
						</g>
						<g>
							<g>
								<polygon fill="#E6E7E8" points="388.5,655.4 368.5,590 376.2,589.7 396.6,655 								"/>
							</g>
							<g>
								<polygon fill="#E6E7E8" points="216,92 208.8,68.4 213.6,68.6 221,92.2 								"/>
							</g>
						</g>
					</g>
				</g>
			</g>
			<g>
				<g>
					<linearGradient id="SVGID_3_" gradientUnits="userSpaceOnUse" x1="253.418" y1="290.0706" x2="331.2366" y2="257.6674">
						<stop  offset="0" style="stop-color:#1D2123"/>
						<stop  offset="1" style="stop-color:#3B4043"/>
					</linearGradient>
					<path fill="url(#SVGID_3_)" d="M424.1,219l-22.2,1c0,0,2.7,3-6.3,6.7c-9.1,3.7-146.4,60.1-146.4,60.1l2.7,3.4l2.7,3.4
						c0,0,137.6-57.2,146.7-61c9-3.7,12.1-0.9,12.1-0.9L424.1,219z"/>
					<linearGradient id="SVGID_4_" gradientUnits="userSpaceOnUse" x1="313.493" y1="301.6596" x2="234.1755" y2="238.9889">
						<stop  offset="0" style="stop-color:#1D2123"/>
						<stop  offset="1" style="stop-color:#3B4043"/>
					</linearGradient>
					<path fill="url(#SVGID_4_)" d="M99,132.2l10,15.7c0,0,2.9-1.5,11.5,5.2c8.7,6.9,189.2,150.1,189.2,150.1l2.6-2.3l2.6-2.3
						c0,0-180.3-142-189-148.8c-8.5-6.7-6-8.5-6-8.5L99,132.2z"/>
					<path fill="#ED1C24" d="M287.3,252.3c-0.7-3.6-4.5-7-8.9-8.1l-1.5-7.9l-4.3-0.4l1.4,7.9c-4.1,0.4-6.8,3.1-6.2,6.7
						c0.6,3.7,4.4,7.1,8.9,8.3l46.7,256.7l5.5,0.4l-47.8-256.8C285.3,258.7,288,255.9,287.3,252.3z M278.4,255.6
						c-2.9-0.3-5.7-2.4-6.1-4.8c-0.4-2.3,1.6-4,4.5-3.7c2.9,0.3,5.7,2.4,6.1,4.7C283.3,254.2,281.3,255.9,278.4,255.6z"/>
					<linearGradient id="SVGID_5_" gradientUnits="userSpaceOnUse" x1="282.5124" y1="289.4206" x2="282.5124" y2="265.8987">
						<stop  offset="0" style="stop-color:#1D2123"/>
						<stop  offset="1" style="stop-color:#3B4043"/>
					</linearGradient>
					<path fill="url(#SVGID_5_)" d="M280.1,265c-8.8-0.8-15,4.3-13.8,11.5c1.2,7.3,9.6,14,18.6,14.9c9,0.8,15.1-4.5,13.7-11.8
						C297.2,272.3,288.9,265.9,280.1,265z"/>
					<linearGradient id="SVGID_6_" gradientUnits="userSpaceOnUse" x1="283.867" y1="285.0117" x2="278.8187" y2="267.2225">
						<stop  offset="0" style="stop-color:#FFFFFF"/>
						<stop  offset="1" style="stop-color:#3B4043;stop-opacity:0"/>
					</linearGradient>
					<path fill="url(#SVGID_6_)" d="M280.6,267.6c-3.9-0.4-7.2,0.7-9.2,2.7c-2.7,2.7-2,7.3,1.1,9.5c2.5,1.8,5.6,3,8.8,3.3
						c5.5,0.5,9.6-1.8,10.8-5.4c0.8-2.2-0.2-4.7-2-6.1C287.5,269.3,284.1,267.9,280.6,267.6z"/>
				</g>
				<g>
					<g>
						<linearGradient id="SVGID_7_" gradientUnits="userSpaceOnUse" x1="309.7355" y1="154.1261" x2="474.246" y2="345.0757">
							<stop  offset="0" style="stop-color:#1D2123"/>
							<stop  offset="1" style="stop-color:#3B4043"/>
						</linearGradient>
						<polygon fill="url(#SVGID_7_)" points="235.4,61.4 241.9,98.4 258.3,100.1 251.1,63.1 						"/>
						<linearGradient id="SVGID_8_" gradientUnits="userSpaceOnUse" x1="105.9321" y1="329.7106" x2="270.4425" y2="520.6602">
							<stop  offset="0" style="stop-color:#1D2123"/>
							<stop  offset="1" style="stop-color:#3B4043"/>
						</linearGradient>
						<polygon fill="url(#SVGID_8_)" points="321.6,553.9 339.1,653.8 366.3,655.7 346.8,555.8 						"/>
					</g>
					<g>
						<linearGradient id="SVGID_9_" gradientUnits="userSpaceOnUse" x1="365.8247" y1="105.8031" x2="530.3351" y2="296.7527">
							<stop  offset="0" style="stop-color:#1D2123"/>
							<stop  offset="1" style="stop-color:#3B4043"/>
						</linearGradient>
						<polygon fill="url(#SVGID_9_)" points="375.1,96.6 357.5,127.4 373.6,134.7 390.7,103.4 						"/>
						<linearGradient id="SVGID_10_" gradientUnits="userSpaceOnUse" x1="24.1708" y1="400.1511" x2="188.6813" y2="591.1007">
							<stop  offset="0" style="stop-color:#1D2123"/>
							<stop  offset="1" style="stop-color:#3B4043"/>
						</linearGradient>
						<polygon fill="url(#SVGID_10_)" points="149.9,489.3 106.7,564.6 130,580.2 172.1,503.3 						"/>
					</g>
					<g>
						<linearGradient id="SVGID_11_" gradientUnits="userSpaceOnUse" x1="395.942" y1="79.8559" x2="560.4525" y2="270.8055">
							<stop  offset="0" style="stop-color:#1D2123"/>
							<stop  offset="1" style="stop-color:#3B4043"/>
						</linearGradient>
						<polygon fill="url(#SVGID_11_)" points="506.8,177 464.1,194.4 477.5,206.8 520.3,188.9 						"/>
						<linearGradient id="SVGID_12_" gradientUnits="userSpaceOnUse" x1="17.1553" y1="406.1952" x2="181.6658" y2="597.1448">
							<stop  offset="0" style="stop-color:#1D2123"/>
							<stop  offset="1" style="stop-color:#3B4043"/>
						</linearGradient>
						<polygon fill="url(#SVGID_12_)" points="38,368 -36.2,398.3 -26.3,418 48.6,386.6 						"/>
					</g>
					<g>
						<linearGradient id="SVGID_13_" gradientUnits="userSpaceOnUse" x1="388.9496" y1="85.8802" x2="553.46" y2="276.8298">
							<stop  offset="0" style="stop-color:#1D2123"/>
							<stop  offset="1" style="stop-color:#3B4043"/>
						</linearGradient>
						<polygon fill="url(#SVGID_13_)" points="608.4,300.8 541.5,294.5 548.6,310.9 616.5,317.2 						"/>
						<linearGradient id="SVGID_14_" gradientUnits="userSpaceOnUse" x1="70.8113" y1="359.9685" x2="235.3217" y2="550.9182">
							<stop  offset="0" style="stop-color:#1D2123"/>
							<stop  offset="1" style="stop-color:#3B4043"/>
						</linearGradient>
						<polygon fill="url(#SVGID_14_)" points="12.9,244.7 -59.3,237.9 -61.9,254 11.5,260.8 						"/>
					</g>
					<g>
						<linearGradient id="SVGID_15_" gradientUnits="userSpaceOnUse" x1="333.7253" y1="133.458" x2="498.2357" y2="324.4076">
							<stop  offset="0" style="stop-color:#1D2123"/>
							<stop  offset="1" style="stop-color:#3B4043"/>
						</linearGradient>
						<polygon fill="url(#SVGID_15_)" points="642.9,455.6 561.3,413.4 557.6,430.1 640.5,473.5 						"/>
						<linearGradient id="SVGID_16_" gradientUnits="userSpaceOnUse" x1="151.8396" y1="290.1595" x2="316.3501" y2="481.1091">
							<stop  offset="0" style="stop-color:#1D2123"/>
							<stop  offset="1" style="stop-color:#3B4043"/>
						</linearGradient>
						<polygon fill="url(#SVGID_16_)" points="58.6,153.7 4.8,125.9 -5.4,135.8 48.8,164.1 						"/>
					</g>
					<g>
						<linearGradient id="SVGID_17_" gradientUnits="userSpaceOnUse" x1="228.8214" y1="223.8368" x2="393.3318" y2="414.7864">
							<stop  offset="0" style="stop-color:#1D2123"/>
							<stop  offset="1" style="stop-color:#3B4043"/>
						</linearGradient>
						<polygon fill="url(#SVGID_17_)" points="565,598.7 495.7,516.8 478.8,527.4 547.9,611 						"/>
						<linearGradient id="SVGID_18_" gradientUnits="userSpaceOnUse" x1="235.7286" y1="217.8859" x2="400.239" y2="408.8356">
							<stop  offset="0" style="stop-color:#1D2123"/>
							<stop  offset="1" style="stop-color:#3B4043"/>
						</linearGradient>
						<polygon fill="url(#SVGID_18_)" points="147.8,105.6 117,69.2 102.8,73 133.3,109.8 						"/>
					</g>
					<g>
						<g>
							<g>
								<linearGradient id="SVGID_19_" gradientUnits="userSpaceOnUse" x1="325.453" y1="140.5849" x2="489.9634" y2="331.5345">
									<stop  offset="0" style="stop-color:#1D2123"/>
									<stop  offset="1" style="stop-color:#3B4043"/>
								</linearGradient>
								<polygon fill="url(#SVGID_19_)" points="274.5,89.7 269.4,88.9 268.2,65.7 273.1,66.5 								"/>
							</g>
							<g>
								<linearGradient id="SVGID_20_" gradientUnits="userSpaceOnUse" x1="76.6087" y1="354.9738" x2="241.1191" y2="545.9235">
									<stop  offset="0" style="stop-color:#1D2123"/>
									<stop  offset="1" style="stop-color:#3B4043"/>
								</linearGradient>
								<polygon fill="url(#SVGID_20_)" points="307.5,649.3 298.9,647.7 295.4,582.2 303.7,583.7 								"/>
							</g>
						</g>
						<g>
							<g>
								<linearGradient id="SVGID_21_" gradientUnits="userSpaceOnUse" x1="337.9649" y1="129.8054" x2="502.4753" y2="320.7551">
									<stop  offset="0" style="stop-color:#1D2123"/>
									<stop  offset="1" style="stop-color:#3B4043"/>
								</linearGradient>
								<polygon fill="url(#SVGID_21_)" points="299.5,95.1 294.3,93.8 296.2,71.2 301.2,72.4 								"/>
							</g>
							<g>
								<linearGradient id="SVGID_22_" gradientUnits="userSpaceOnUse" x1="56.3273" y1="372.4471" x2="220.8377" y2="563.3967">
									<stop  offset="0" style="stop-color:#1D2123"/>
									<stop  offset="1" style="stop-color:#3B4043"/>
								</linearGradient>
								<polygon fill="url(#SVGID_22_)" points="258.7,638 250.1,635.5 255.2,572.3 263.4,574.7 								"/>
							</g>
						</g>
						<g>
							<g>
								<linearGradient id="SVGID_23_" gradientUnits="userSpaceOnUse" x1="349.6232" y1="119.7613" x2="514.1337" y2="310.711">
									<stop  offset="0" style="stop-color:#1D2123"/>
									<stop  offset="1" style="stop-color:#3B4043"/>
								</linearGradient>
								<polygon fill="url(#SVGID_23_)" points="324.4,102 319.3,100.5 324.2,78.6 329.2,80.1 								"/>
							</g>
							<g>
								<linearGradient id="SVGID_24_" gradientUnits="userSpaceOnUse" x1="38.8105" y1="387.5384" x2="203.321" y2="578.488">
									<stop  offset="0" style="stop-color:#1D2123"/>
									<stop  offset="1" style="stop-color:#3B4043"/>
								</linearGradient>
								<polygon fill="url(#SVGID_24_)" points="210.6,621.5 202.3,618.1 215.8,558.2 223.8,561.4 								"/>
							</g>
						</g>
						<g>
							<g>
								<linearGradient id="SVGID_25_" gradientUnits="userSpaceOnUse" x1="360.3667" y1="110.5054" x2="524.8772" y2="301.455">
									<stop  offset="0" style="stop-color:#1D2123"/>
									<stop  offset="1" style="stop-color:#3B4043"/>
								</linearGradient>
								<polygon fill="url(#SVGID_25_)" points="349.2,110.7 344.1,108.7 352.2,87.8 357.1,89.7 								"/>
							</g>
							<g>
								<linearGradient id="SVGID_26_" gradientUnits="userSpaceOnUse" x1="24.3848" y1="399.9667" x2="188.8953" y2="590.9163">
									<stop  offset="0" style="stop-color:#1D2123"/>
									<stop  offset="1" style="stop-color:#3B4043"/>
								</linearGradient>
								<polygon fill="url(#SVGID_26_)" points="164.5,600.2 156.5,596 177.9,540.5 185.5,544.4 								"/>
							</g>
						</g>
						<g>
							<g>
								<linearGradient id="SVGID_27_" gradientUnits="userSpaceOnUse" x1="378.8403" y1="94.5897" x2="543.3507" y2="285.5393">
									<stop  offset="0" style="stop-color:#1D2123"/>
									<stop  offset="1" style="stop-color:#3B4043"/>
								</linearGradient>
								<polygon fill="url(#SVGID_27_)" points="397.9,132.8 393,130.2 407.4,111.7 412.2,114.1 								"/>
							</g>
							<g>
								<linearGradient id="SVGID_28_" gradientUnits="userSpaceOnUse" x1="5.5452" y1="416.1978" x2="170.0556" y2="607.1474">
									<stop  offset="0" style="stop-color:#1D2123"/>
									<stop  offset="1" style="stop-color:#3B4043"/>
								</linearGradient>
								<polygon fill="url(#SVGID_28_)" points="81.5,545.8 74.9,540.4 109.5,495.7 116,500.8 								"/>
							</g>
						</g>
						<g>
							<g>
								<linearGradient id="SVGID_29_" gradientUnits="userSpaceOnUse" x1="386.4219" y1="88.0578" x2="550.9324" y2="279.0074">
									<stop  offset="0" style="stop-color:#1D2123"/>
									<stop  offset="1" style="stop-color:#3B4043"/>
								</linearGradient>
								<polygon fill="url(#SVGID_29_)" points="421.5,146.3 416.8,143.4 434.4,126.3 439.1,129.1 								"/>
							</g>
							<g>
								<linearGradient id="SVGID_30_" gradientUnits="userSpaceOnUse" x1="1.2193" y1="419.9247" x2="165.7298" y2="610.8743">
									<stop  offset="0" style="stop-color:#1D2123"/>
									<stop  offset="1" style="stop-color:#3B4043"/>
								</linearGradient>
								<polygon fill="url(#SVGID_30_)" points="46.2,514.2 40.4,508.4 80.2,469.8 85.9,475.2 								"/>
							</g>
						</g>
						<g>
							<g>
								<linearGradient id="SVGID_31_" gradientUnits="userSpaceOnUse" x1="392.7909" y1="82.5707" x2="557.3014" y2="273.5203">
									<stop  offset="0" style="stop-color:#1D2123"/>
									<stop  offset="1" style="stop-color:#3B4043"/>
								</linearGradient>
								<polygon fill="url(#SVGID_31_)" points="444.5,161.3 439.8,158.1 460.7,142.7 465.3,145.8 								"/>
							</g>
							<g>
								
									<linearGradient id="SVGID_32_" gradientUnits="userSpaceOnUse" x1="8.914981e-002" y1="420.8983" x2="164.5996" y2="611.848">
									<stop  offset="0" style="stop-color:#1D2123"/>
									<stop  offset="1" style="stop-color:#3B4043"/>
								</linearGradient>
								<polygon fill="url(#SVGID_32_)" points="15.6,480.7 10.6,474.7 54.6,442.3 59.5,448 								"/>
							</g>
						</g>
						<g>
							<g>
								<linearGradient id="SVGID_33_" gradientUnits="userSpaceOnUse" x1="397.8565" y1="78.2065" x2="562.367" y2="269.1561">
									<stop  offset="0" style="stop-color:#1D2123"/>
									<stop  offset="1" style="stop-color:#3B4043"/>
								</linearGradient>
								<polygon fill="url(#SVGID_33_)" points="466.6,178 462.1,174.4 486.3,160.9 490.7,164.4 								"/>
							</g>
							<g>
								<linearGradient id="SVGID_34_" gradientUnits="userSpaceOnUse" x1="2.1364" y1="419.1346" x2="166.6469" y2="610.0842">
									<stop  offset="0" style="stop-color:#1D2123"/>
									<stop  offset="1" style="stop-color:#3B4043"/>
								</linearGradient>
								<polygon fill="url(#SVGID_34_)" points="-10,446.1 -14,439.9 32.9,413.7 37,419.6 								"/>
							</g>
						</g>
						<g>
							<g>
								<linearGradient id="SVGID_35_" gradientUnits="userSpaceOnUse" x1="403.6826" y1="73.1871" x2="568.1931" y2="264.1367">
									<stop  offset="0" style="stop-color:#1D2123"/>
									<stop  offset="1" style="stop-color:#3B4043"/>
								</linearGradient>
								<polygon fill="url(#SVGID_35_)" points="507.4,215.7 503.4,211.6 534.3,202.7 538.3,206.8 								"/>
							</g>
							<g>
								<linearGradient id="SVGID_36_" gradientUnits="userSpaceOnUse" x1="14.5185" y1="408.4669" x2="179.0289" y2="599.4166">
									<stop  offset="0" style="stop-color:#1D2123"/>
									<stop  offset="1" style="stop-color:#3B4043"/>
								</linearGradient>
								<polygon fill="url(#SVGID_36_)" points="-46,376.3 -48.2,370.2 1.9,355.8 4.3,361.7 								"/>
							</g>
						</g>
						<g>
							<g>
								<linearGradient id="SVGID_37_" gradientUnits="userSpaceOnUse" x1="404.1819" y1="72.757" x2="568.6923" y2="263.7066">
									<stop  offset="0" style="stop-color:#1D2123"/>
									<stop  offset="1" style="stop-color:#3B4043"/>
								</linearGradient>
								<polygon fill="url(#SVGID_37_)" points="525.7,236.8 522.1,232.3 556.2,226.2 559.9,230.6 								"/>
							</g>
						</g>
						<g>
							<g>
								<linearGradient id="SVGID_38_" gradientUnits="userSpaceOnUse" x1="402.9984" y1="73.7765" x2="567.5089" y2="264.7262">
									<stop  offset="0" style="stop-color:#1D2123"/>
									<stop  offset="1" style="stop-color:#3B4043"/>
								</linearGradient>
								<polygon fill="url(#SVGID_38_)" points="542.3,259.1 539,254.4 576.4,251.4 579.8,256 								"/>
							</g>
						</g>
						<g>
							<g>
								<linearGradient id="SVGID_39_" gradientUnits="userSpaceOnUse" x1="399.9773" y1="76.3794" x2="564.4877" y2="267.329">
									<stop  offset="0" style="stop-color:#1D2123"/>
									<stop  offset="1" style="stop-color:#3B4043"/>
								</linearGradient>
								<polygon fill="url(#SVGID_39_)" points="556.9,282.7 554.1,277.8 594.7,278.1 597.7,283 								"/>
							</g>
						</g>
						<g>
							<g>
								<linearGradient id="SVGID_40_" gradientUnits="userSpaceOnUse" x1="387.9853" y1="86.7109" x2="552.4957" y2="277.6605">
									<stop  offset="0" style="stop-color:#1D2123"/>
									<stop  offset="1" style="stop-color:#3B4043"/>
								</linearGradient>
								<polygon fill="url(#SVGID_40_)" points="625.7,341.2 579,332.9 577.3,327.6 623.7,335.8 								"/>
							</g>
						</g>
						<g>
							<g>
								<linearGradient id="SVGID_41_" gradientUnits="userSpaceOnUse" x1="378.8198" y1="94.6073" x2="543.3303" y2="285.5569">
									<stop  offset="0" style="stop-color:#1D2123"/>
									<stop  offset="1" style="stop-color:#3B4043"/>
								</linearGradient>
								<polygon fill="url(#SVGID_41_)" points="635.2,371.9 586,359.2 584.8,353.7 633.8,366.4 								"/>
							</g>
						</g>
						<g>
							<g>
								<linearGradient id="SVGID_42_" gradientUnits="userSpaceOnUse" x1="367.4402" y1="104.4113" x2="531.9506" y2="295.361">
									<stop  offset="0" style="stop-color:#1D2123"/>
									<stop  offset="1" style="stop-color:#3B4043"/>
								</linearGradient>
								<polygon fill="url(#SVGID_42_)" points="641.1,403.4 589.7,385.8 589.2,380.3 640.4,397.8 								"/>
							</g>
							<g>
								<linearGradient id="SVGID_43_" gradientUnits="userSpaceOnUse" x1="113.2923" y1="323.3694" x2="277.8028" y2="514.3191">
									<stop  offset="0" style="stop-color:#1D2123"/>
									<stop  offset="1" style="stop-color:#3B4043"/>
								</linearGradient>
								<polygon fill="url(#SVGID_43_)" points="6.3,185.9 -34.2,172.1 -31.8,168.2 8.6,182 								"/>
							</g>
						</g>
						<g>
							<g>
								<linearGradient id="SVGID_44_" gradientUnits="userSpaceOnUse" x1="353.8051" y1="116.1585" x2="518.3156" y2="307.1081">
									<stop  offset="0" style="stop-color:#1D2123"/>
									<stop  offset="1" style="stop-color:#3B4043"/>
								</linearGradient>
								<polygon fill="url(#SVGID_44_)" points="643.1,435.3 590,412.6 590.3,407.1 643,429.7 								"/>
							</g>
							<g>
								<linearGradient id="SVGID_45_" gradientUnits="userSpaceOnUse" x1="130.8003" y1="308.2856" x2="295.3108" y2="499.2353">
									<stop  offset="0" style="stop-color:#1D2123"/>
									<stop  offset="1" style="stop-color:#3B4043"/>
								</linearGradient>
								<polygon fill="url(#SVGID_45_)" points="18.3,167.3 -19.5,151.1 -16.6,147.6 21,163.7 								"/>
							</g>
						</g>
						<g>
							<g>
								<linearGradient id="SVGID_46_" gradientUnits="userSpaceOnUse" x1="319.8089" y1="145.4475" x2="484.3194" y2="336.3971">
									<stop  offset="0" style="stop-color:#1D2123"/>
									<stop  offset="1" style="stop-color:#3B4043"/>
								</linearGradient>
								<polygon fill="url(#SVGID_46_)" points="633.5,498.6 579.1,464.9 581,459.6 635.1,493.1 								"/>
							</g>
							<g>
								<linearGradient id="SVGID_47_" gradientUnits="userSpaceOnUse" x1="166.3054" y1="277.6967" x2="330.8159" y2="468.6463">
									<stop  offset="0" style="stop-color:#1D2123"/>
									<stop  offset="1" style="stop-color:#3B4043"/>
								</linearGradient>
								<polygon fill="url(#SVGID_47_)" points="48.3,135.6 16.5,115.8 20,113.1 51.8,132.8 								"/>
							</g>
						</g>
						<g>
							<g>
								<linearGradient id="SVGID_48_" gradientUnits="userSpaceOnUse" x1="299.6015" y1="162.857" x2="464.1119" y2="353.8066">
									<stop  offset="0" style="stop-color:#1D2123"/>
									<stop  offset="1" style="stop-color:#3B4043"/>
								</linearGradient>
								<polygon fill="url(#SVGID_48_)" points="621.3,528.9 567.6,489.5 570.3,484.6 623.9,523.6 								"/>
							</g>
							<g>
								<linearGradient id="SVGID_49_" gradientUnits="userSpaceOnUse" x1="184.0195" y1="262.4353" x2="348.53" y2="453.3849">
									<stop  offset="0" style="stop-color:#1D2123"/>
									<stop  offset="1" style="stop-color:#3B4043"/>
								</linearGradient>
								<polygon fill="url(#SVGID_49_)" points="66,122.6 37.2,101.6 41,99.3 69.8,120.2 								"/>
							</g>
						</g>
						<g>
							<g>
								<linearGradient id="SVGID_50_" gradientUnits="userSpaceOnUse" x1="277.4673" y1="181.9264" x2="441.9778" y2="372.876">
									<stop  offset="0" style="stop-color:#1D2123"/>
									<stop  offset="1" style="stop-color:#3B4043"/>
								</linearGradient>
								<polygon fill="url(#SVGID_50_)" points="603.9,557.4 551.7,512.6 555.3,508 607.4,552.5 								"/>
							</g>
							<g>
								<linearGradient id="SVGID_51_" gradientUnits="userSpaceOnUse" x1="201.5506" y1="247.3316" x2="366.0611" y2="438.2812">
									<stop  offset="0" style="stop-color:#1D2123"/>
									<stop  offset="1" style="stop-color:#3B4043"/>
								</linearGradient>
								<polygon fill="url(#SVGID_51_)" points="85,111.6 59.3,89.5 63.4,87.6 89.1,109.6 								"/>
							</g>
						</g>
						<g>
							<g>
								<linearGradient id="SVGID_52_" gradientUnits="userSpaceOnUse" x1="253.6605" y1="202.4369" x2="418.171" y2="393.3865">
									<stop  offset="0" style="stop-color:#1D2123"/>
									<stop  offset="1" style="stop-color:#3B4043"/>
								</linearGradient>
								<polygon fill="url(#SVGID_52_)" points="581.1,583.6 531.5,533.5 536,529.4 585.5,579.2 								"/>
							</g>
							<g>
								<linearGradient id="SVGID_53_" gradientUnits="userSpaceOnUse" x1="218.8006" y1="232.4701" x2="383.311" y2="423.4197">
									<stop  offset="0" style="stop-color:#1D2123"/>
									<stop  offset="1" style="stop-color:#3B4043"/>
								</linearGradient>
								<polygon fill="url(#SVGID_53_)" points="105.4,102.4 82.7,79.5 87,78 109.7,100.8 								"/>
							</g>
						</g>
						<g>
							<g>
								<linearGradient id="SVGID_54_" gradientUnits="userSpaceOnUse" x1="202.3328" y1="246.6577" x2="366.8432" y2="437.6073">
									<stop  offset="0" style="stop-color:#1D2123"/>
									<stop  offset="1" style="stop-color:#3B4043"/>
								</linearGradient>
								<polygon fill="url(#SVGID_54_)" points="519.8,626 478.9,566.8 485,564 526.1,622.9 								"/>
							</g>
							<g>
								<linearGradient id="SVGID_55_" gradientUnits="userSpaceOnUse" x1="252.0812" y1="203.7975" x2="416.5916" y2="394.7472">
									<stop  offset="0" style="stop-color:#1D2123"/>
									<stop  offset="1" style="stop-color:#3B4043"/>
								</linearGradient>
								<polygon fill="url(#SVGID_55_)" points="149.1,89.7 132.6,65.8 137.2,65 153.8,88.8 								"/>
							</g>
						</g>
						<g>
							<g>
								<linearGradient id="SVGID_56_" gradientUnits="userSpaceOnUse" x1="175.8124" y1="269.506" x2="340.3228" y2="460.4557">
									<stop  offset="0" style="stop-color:#1D2123"/>
									<stop  offset="1" style="stop-color:#3B4043"/>
								</linearGradient>
								<polygon fill="url(#SVGID_56_)" points="482,640.9 447,578.3 453.8,576.2 489,638.6 								"/>
							</g>
							<g>
								<linearGradient id="SVGID_57_" gradientUnits="userSpaceOnUse" x1="268.0103" y1="190.074" x2="432.5207" y2="381.0237">
									<stop  offset="0" style="stop-color:#1D2123"/>
									<stop  offset="1" style="stop-color:#3B4043"/>
								</linearGradient>
								<polygon fill="url(#SVGID_57_)" points="172.1,86 158.7,62 163.4,61.5 177,85.5 								"/>
							</g>
						</g>
						<g>
							<g>
								<linearGradient id="SVGID_58_" gradientUnits="userSpaceOnUse" x1="149.4027" y1="292.259" x2="313.9132" y2="483.2086">
									<stop  offset="0" style="stop-color:#1D2123"/>
									<stop  offset="1" style="stop-color:#3B4043"/>
								</linearGradient>
								<polygon fill="url(#SVGID_58_)" points="440.1,650.9 412.1,585.8 419.5,584.6 447.8,649.5 								"/>
							</g>
							<g>
								<linearGradient id="SVGID_59_" gradientUnits="userSpaceOnUse" x1="283.369" y1="176.8419" x2="447.8794" y2="367.7915">
									<stop  offset="0" style="stop-color:#1D2123"/>
									<stop  offset="1" style="stop-color:#3B4043"/>
								</linearGradient>
								<polygon fill="url(#SVGID_59_)" points="195.8,84.1 185.5,60 190.3,59.9 200.8,84 								"/>
							</g>
						</g>
						<g>
							<g>
								<linearGradient id="SVGID_60_" gradientUnits="userSpaceOnUse" x1="123.6798" y1="314.4203" x2="288.1903" y2="505.3699">
									<stop  offset="0" style="stop-color:#1D2123"/>
									<stop  offset="1" style="stop-color:#3B4043"/>
								</linearGradient>
								<polygon fill="url(#SVGID_60_)" points="395,655.4 374.6,589 382.5,588.7 403.2,655 								"/>
							</g>
							<g>
								<linearGradient id="SVGID_61_" gradientUnits="userSpaceOnUse" x1="298.0995" y1="164.151" x2="462.6099" y2="355.1006">
									<stop  offset="0" style="stop-color:#1D2123"/>
									<stop  offset="1" style="stop-color:#3B4043"/>
								</linearGradient>
								<polygon fill="url(#SVGID_61_)" points="220,84 212.7,60.1 217.6,60.2 225,84.2 								"/>
							</g>
						</g>
					</g>
				</g>
			</g>
		</g>
	</g>
</g>
<g id="Text">
</g>
</svg>
